<?xml version="1.0" encoding="UTF-8" standalone="no"?>
<!-- Creator: CorelDRAW -->

<svg
   xmlns:dc="http://purl.org/dc/elements/1.1/"
   xmlns:cc="http://creativecommons.org/ns#"
   xmlns:rdf="http://www.w3.org/1999/02/22-rdf-syntax-ns#"
   xmlns:svg="http://www.w3.org/2000/svg"
   xmlns="http://www.w3.org/2000/svg"
   xmlns:sodipodi="http://sodipodi.sourceforge.net/DTD/sodipodi-0.dtd"
   xmlns:inkscape="http://www.inkscape.org/namespaces/inkscape"
   xml:space="preserve"
   width="397.56335"
   height="95.358368"
   style="fill-rule:evenodd;image-rendering:optimizeQuality;shape-rendering:geometricPrecision;text-rendering:geometricPrecision"
   viewBox="0 0 4141.2847 993.31642"
   version="1.1"
   id="svg39"
   sodipodi:docname="gi-logo-white.svg"
   inkscape:version="0.92.1 r15371"
   inkscape:export-filename="/home/siena/git/gerhardt.io-slides/implementation-patterns/gi-logo-white.png"
   inkscape:export-xdpi="96"
   inkscape:export-ydpi="96"><metadata
     id="metadata43"><rdf:RDF><cc:Work
         rdf:about=""><dc:format>image/svg+xml</dc:format><dc:type
           rdf:resource="http://purl.org/dc/dcmitype/StillImage" /><dc:title></dc:title></cc:Work></rdf:RDF></metadata><sodipodi:namedview
     pagecolor="#000000"
     bordercolor="#666666"
     borderopacity="1"
     objecttolerance="10"
     gridtolerance="10"
     guidetolerance="10"
     inkscape:pageopacity="0"
     inkscape:pageshadow="2"
     inkscape:window-width="1020"
     inkscape:window-height="729"
     id="namedview41"
     showgrid="false"
     units="px"
     fit-margin-top="0"
     fit-margin-left="0"
     fit-margin-right="0"
     fit-margin-bottom="0"
     inkscape:zoom="1.6819324"
     inkscape:cx="86.417029"
     inkscape:cy="50.123991"
     inkscape:window-x="0"
     inkscape:window-y="18"
     inkscape:window-maximized="0"
     inkscape:current-layer="svg39"
     inkscape:pagecheckerboard="true" /><defs
     id="defs4"><style
       type="text/css"
       id="style2"><![CDATA[
    .fil0 {fill:#091214}
   ]]></style></defs><g
     id="Ebene_x0020_1"
     transform="matrix(2.6463857,0,0,2.6463857,-1542.1628,-10109.83)"
     style="fill:#ffffff"><g
       id="g6"
       style="fill:#ffffff" /><g
       id="g12"
       style="fill:#ffffff"><path
         class="fil0"
         d="m 652.65,3998.67 127.016,-127.016 c 6.04724,-6.0512 9.07087,-13.1063 9.07087,-21.1693 0,-8.0669 -3.02362,-15.122 -9.07087,-21.1693 -6.04724,-6.0472 -13.1063,-9.0748 -21.1693,-9.0748 -8.06299,0 -15.122,3.0236 -21.1693,9.0748 l -127.016,127.016 c -6.44882,6.4488 -12.248,14.4646 -17.3898,24.0394 -5.14173,9.5787 -8.36614,20.063 -9.67717,31.4528 -1.31102,11.3898 -0.0512,23.2362 3.77953,35.5315 3.83071,12.2992 11.5945,24.2953 23.2874,35.9882 l 84.6772,84.6772 c 6.44882,6.4528 14.4646,12.248 24.0433,17.3898 9.5748,5.1417 20.0591,8.3661 31.4488,9.6772 11.3937,1.311 23.2362,0.051 35.5354,-3.7796 12.2992,-3.8307 24.2953,-11.5906 35.9882,-23.2874 l 84.6772,-84.6772 c 6.24803,-6.248 11.9961,-14.2126 17.2362,-23.8898 5.24409,-9.6771 8.51969,-20.2126 9.83071,-31.6024 1.31102,-11.3898 0.0512,-23.2362 -3.77953,-35.5315 -3.83465,-12.2992 -11.5945,-24.2953 -23.2874,-35.9882 l -42.3386,-42.3386 c -6.04724,-6.0472 -13.1063,-9.0748 -21.1693,-9.0748 -8.06693,0 -15.122,3.0237 -21.1693,9.0748 l -84.6772,84.6772 c -6.04724,6.0473 -9.0748,13.1024 -9.0748,21.1654 0,8.067 3.02756,15.122 9.0748,21.1693 6.04724,6.0512 13.1063,9.0748 21.1693,9.0748 8.06299,0 15.122,-3.0236 21.1693,-9.0748 l 63.5079,-63.5039 21.1693,21.1693 c 4.23228,4.2323 7.05512,8.3662 8.4685,12.3976 1.40945,4.0315 1.8622,7.9134 1.35827,11.6417 -0.50394,3.7323 -1.7126,7.1575 -3.62992,10.2835 -1.91339,3.126 -3.98031,5.7953 -6.19685,8.0118 l -84.6772,84.6772 c -4.23622,4.2363 -8.36614,7.0591 -12.3976,8.4685 -4.0315,1.4134 -7.91339,1.8662 -11.6457,1.3622 -3.72835,-0.5039 -7.15748,-1.7165 -10.2795,-3.6299 -3.12598,-1.9134 -5.79921,-3.9803 -8.01575,-6.2008 l -84.6772,-84.6772 c -4.23228,-4.2322 -7.05906,-8.3661 -8.4685,-12.3976 -1.40945,-4.0315 -1.86614,-7.9134 -1.3622,-11.6417 0.50787,-3.7322 1.71654,-7.1574 3.62992,-10.2835 1.91732,-3.122 3.98425,-5.7952 6.20079,-8.0118 z"
         id="path8"
         inkscape:connector-curvature="0"
         style="fill:#ffffff" /><path
         class="fil0"
         d="m 1152.02,3942.02 c -10.3898,0.039 -19.0197,1.5945 -25.9724,4.6221 -6.9134,3.0669 -12.3937,7.4448 -16.4055,13.1693 -4.0472,5.685 -6.9095,12.559 -8.6299,20.492 -1.7166,7.9764 -2.5355,16.8938 -2.4961,26.752 -0.039,9.8583 0.7795,18.7756 2.4961,26.7088 1.7204,7.9763 4.5827,14.8071 8.6299,20.5354 4.0118,5.685 9.4921,10.1024 16.4055,13.1693 6.9528,3.0275 15.5827,4.5826 25.9724,4.622 h 39.0197 c -0.8583,4.2126 -2.4134,7.5236 -4.7441,9.9409 -2.2913,2.4134 -5.1535,4.0906 -8.5905,5.0709 -3.437,0.9803 -7.2402,1.4725 -11.4528,1.4291 h -58.6535 v 26.9961 h 65.2795 c 13.0472,0.043 23.7638,-1.8819 32.1102,-5.7244 8.3031,-3.8464 14.4803,-9.7756 18.4449,-17.8346 3.9685,-8.059 5.933,-18.3661 5.8897,-30.9213 v -94.4843 c -0.039,-8.0197 -2.126,-14.0709 -6.2992,-18.2441 -4.1693,-4.1732 -10.2244,-6.2598 -18.2402,-6.2992 h -52.7638 z m 39.0197,101.846 h -28.2205 c -5.5236,-0.039 -9.9842,-1.1024 -13.3386,-3.1063 -3.3504,-2.0472 -5.8465,-4.8268 -7.563,-8.3032 -1.6772,-3.4763 -2.8228,-7.4055 -3.3543,-11.7795 -0.5748,-4.3779 -0.8189,-8.9173 -0.7795,-13.6219 -0.039,-5.0709 0.2047,-9.815 0.7362,-14.2324 0.5315,-4.4606 1.6771,-8.3464 3.3543,-11.7402 1.7205,-3.3543 4.2953,-6.0118 7.7323,-7.937 3.3937,-1.8819 7.9764,-2.8622 13.7008,-2.9015 h 17.9173 c 3.6378,-0.043 6.1732,0.6535 7.689,2.1259 1.4724,1.5119 2.1693,4.0473 2.1259,7.689 v 63.8071 z m 188.756,28.2244 v -27.4882 h -63.3189 c -6.8701,0 -12.2283,-0.9803 -16.0354,-2.8622 -3.7598,-1.9213 -6.3819,-4.7441 -7.8543,-8.4252 -1.4685,-3.6811 -2.2047,-8.1811 -2.126,-13.5 h 73.3819 c 5.2756,-0.079 9.4055,-1.3071 12.3937,-3.7205 2.9449,-2.4134 5.0315,-5.685 6.2559,-9.7362 1.185,-4.0472 1.7598,-8.5866 1.7165,-13.5354 0,-9.0394 -0.937,-16.6496 -2.7795,-22.8661 -1.8386,-6.2165 -4.5394,-11.248 -8.1811,-15.1339 -3.5984,-3.8858 -8.0984,-6.874 -13.4134,-8.9567 -5.3583,-2.0472 -11.4961,-3.4803 -18.4882,-4.2559 -6.996,-0.7362 -14.8071,-1.1023 -23.3976,-1.063 -10.2677,-0.039 -19.185,0.4921 -26.6693,1.5551 -7.5275,1.1024 -13.8228,3.0276 -18.937,5.7678 -5.0709,2.7795 -9.122,6.6259 -12.189,11.6142 -3.0275,4.9488 -5.1929,11.2913 -6.5039,19.0197 -1.3504,7.6889 -2.004,17.0591 -1.9646,28.0591 -0.079,11.9449 0.5748,22.0866 1.8819,30.4331 1.311,8.3425 3.7244,15.0945 7.2795,20.2874 3.5197,5.1535 8.5512,8.9173 15.0551,11.2913 6.5433,2.37 15.0118,3.5551 25.3583,3.5157 h 78.5354 z m -89.3346,-78.7795 c 0,-6.3386 1.0236,-11.3701 3.0276,-15.0512 2.0472,-3.7205 5.0708,-6.3386 9.1614,-7.937 4.0512,-1.5512 9.1614,-2.3307 15.2992,-2.2874 3.1063,0 6.2559,0.2835 9.4488,0.8583 3.1496,0.5708 6.0945,1.5551 8.7913,2.8622 2.6615,1.3503 4.8308,3.1496 6.4646,5.4015 1.6378,2.2047 2.4961,4.9882 2.5354,8.3032 0.039,1.1023 -0.039,2.248 -0.3267,3.433 -0.2441,1.2284 -0.8583,2.252 -1.8819,3.1103 -1.0236,0.8189 -2.6575,1.2677 -4.9095,1.3071 z m 116.11,78.7795 h 38.2874 v -67.2441 c -0.043,-7.5276 0.8976,-13.8661 2.8622,-19.0197 1.9646,-5.1142 5.1929,-9 9.6535,-11.6181 4.4567,-2.6575 10.4291,-3.9646 17.9134,-3.9646 h 15.2165 v -28.2244 h -25.7677 c -9.5708,-0.039 -17.9961,0.8583 -25.2362,2.6575 -7.2401,1.8032 -13.3346,4.7441 -18.2047,8.7559 -4.8661,4.0079 -8.5472,9.3268 -11,15.9094 -2.496,6.5866 -3.7244,14.685 -3.7244,24.2126 v 78.5354 z m 100.65,0 h 38.2874 v -101.846 h 25.0315 c 6.5039,0 11.7402,0.9803 15.748,3.0276 3.9646,2.0039 6.8307,5.1102 8.6299,9.3228 1.7599,4.2126 2.6575,9.5709 2.6181,16.1181 v 73.378 h 38.2835 v -83.1969 c -0.039,-8.2598 -1.3071,-15.378 -3.8425,-21.311 -2.5394,-5.9291 -6.1378,-10.7953 -10.7992,-14.5591 -4.622,-3.7638 -10.1457,-6.5433 -16.5236,-8.3465 -6.3819,-1.7992 -13.4173,-2.6574 -21.1063,-2.6574 h -38.0394 v -41.7205 h -38.2874 v 171.791 z m 160.043,-130.071 v 27.4882 h 65.7677 c 5.3189,0 9.3701,1.3465 12.189,3.9685 2.8228,2.6575 4.2559,6.5827 4.2559,11.7362 v 5.6457 h -59.1457 c -7.7323,0.039 -13.9488,1.7165 -18.6929,5.0315 -4.7441,3.311 -8.1811,8.0157 -10.3071,14.0709 -2.126,6.0118 -3.189,13.1693 -3.1496,21.3898 -0.039,9 1.0236,16.5236 3.1496,22.5787 2.126,6.0118 5.563,10.5551 10.3071,13.5787 4.7441,3.0669 10.9606,4.5826 18.6929,4.5826 h 72.8898 c 8.0158,-0.039 14.0709,-2.1259 18.2402,-6.2992 4.1732,-4.1732 6.2599,-10.2244 6.2992,-18.2441 v -64.2992 c 0,-8.2204 -1.5945,-15.4173 -4.7047,-21.5945 -3.1063,-6.1771 -7.689,-10.9606 -13.6614,-14.3976 -5.9685,-3.437 -13.252,-5.1968 -21.8819,-5.2362 h -80.248 z m 82.2126,75.3425 v 19.6339 c 0.039,3.0276 -0.6142,5.2362 -2.0039,6.5866 -1.3504,1.3465 -3.5591,2.0433 -6.5866,2.004 h -32.6417 c -3.9252,-0.043 -6.7874,-1.3504 -8.5867,-3.8465 -1.8425,-2.5354 -2.7401,-5.9291 -2.7007,-10.1417 0,-4.5827 1.0236,-8.0591 2.9842,-10.5118 2.0079,-2.4567 4.8268,-3.6811 8.5512,-3.7244 h 40.9843 z m 64.3268,54.7283 h 38.2874 v -67.2441 c -0.043,-7.5276 0.8976,-13.8661 2.8622,-19.0197 1.9606,-5.1142 5.1929,-9 9.6535,-11.6181 4.4567,-2.6575 10.4291,-3.9646 17.9134,-3.9646 h 15.2165 v -28.2244 h -25.7677 c -9.5708,-0.039 -18,0.8583 -25.2362,2.6575 -7.2401,1.8032 -13.3346,4.7441 -18.2047,8.7559 -4.8661,4.0079 -8.5472,9.3268 -11,15.9094 -2.496,6.5866 -3.7244,14.685 -3.7244,24.2126 v 78.5354 z m 199.307,0 c 8.0158,-0.039 14.0709,-2.126 18.2441,-6.2992 4.1693,-4.1732 6.2559,-10.2244 6.2992,-18.2441 v -147.248 h -38.2874 v 41.7205 h -37.5472 c -10.3898,0.039 -19.0197,1.5945 -25.9724,4.622 -6.9134,3.067 -12.3937,7.4449 -16.4016,13.1693 -4.0512,5.6851 -6.9134,12.5591 -8.6299,20.4921 -1.7205,7.9764 -2.5394,16.8937 -2.4961,26.752 -0.043,9.8583 0.7756,18.7756 2.4961,26.7087 1.7165,7.9764 4.5787,14.8071 8.6299,20.5354 4.0079,5.6851 9.4882,10.1024 16.4016,13.1693 6.9528,3.0276 15.5827,4.5827 25.9724,4.6221 h 51.2913 z m -13.7441,-38.0394 c 0.043,3.6417 -0.6535,6.1772 -2.126,7.689 -1.5157,1.4724 -4.0512,2.1693 -7.689,2.126 h -16.4449 c -5.7244,-0.039 -10.3071,-1.0197 -13.7008,-2.9016 -3.437,-1.9252 -6.0118,-4.5827 -7.7322,-7.937 -1.6772,-3.3937 -2.8229,-7.3189 -3.3544,-11.7402 -0.5315,-4.4173 -0.7756,-9.1614 -0.7362,-14.2323 -0.039,-4.7047 0.2047,-9.2441 0.7795,-13.622 0.5315,-4.374 1.6772,-8.3032 3.3544,-11.7795 1.7165,-3.4764 4.2126,-6.2559 7.5669,-8.3032 3.3543,-2.0433 7.811,-3.0669 13.3346,-3.1063 h 26.748 v 63.8071 z m 148.26,38.0394 v -28.2244 h -7.1142 c -10.3504,0.043 -17.9173,-2.3307 -22.6614,-7.1142 -4.7441,-4.748 -7.1181,-12.0669 -7.0354,-21.8425 v -44.6654 h 36.811 v -28.2244 h -36.811 v -41.7205 h -38.2835 v 41.7205 h -18.1614 v 28.2244 h 18.1614 v 58.6535 c 0.039,7.9331 1.2244,14.685 3.5984,20.2047 2.3307,5.5237 5.6851,9.9803 9.9803,13.3346 4.3347,3.3937 9.4056,5.8504 15.2992,7.4055 5.8859,1.5119 12.3898,2.2874 19.4685,2.2481 h 26.748 z"
         id="path10"
         inkscape:connector-curvature="0"
         style="fill:#ffffff" /></g><g
       id="g14"
       style="fill:#ffffff" /><g
       id="g16"
       style="fill:#ffffff" /><g
       id="g18"
       style="fill:#ffffff" /><g
       id="g20"
       style="fill:#ffffff" /><g
       id="g22"
       style="fill:#ffffff" /><g
       id="g24"
       style="fill:#ffffff" /><g
       id="g26"
       style="fill:#ffffff" /><g
       id="g30"
       style="fill:#ffffff"><g
         id="g28"
         style="fill:#ffffff" /></g><g
       id="g34"
       style="fill:#ffffff"><g
         id="g32"
         style="fill:#ffffff" /></g><g
       id="g36"
       style="fill:#ffffff" /></g></svg>